<?xml version="1.0" encoding="utf-8"?>
<!-- Generator: Adobe Illustrator 22.1.0, SVG Export Plug-In . SVG Version: 6.00 Build 0)  -->
<svg version="1.1" id="Layer_1" xmlns="http://www.w3.org/2000/svg" xmlns:xlink="http://www.w3.org/1999/xlink" x="0px" y="0px"
	 viewBox="0 0 128 128" style="enable-background:new 0 0 128 128;" xml:space="preserve">
<style type="text/css">
	.st0{fill:url(#SVGID_1_);}
	.st1{fill:url(#SVGID_2_);}
	.st2{fill:url(#SVGID_3_);}
	.st3{fill:url(#SVGID_4_);}
	.st4{fill:url(#SVGID_5_);}
	.st5{fill:url(#SVGID_6_);}
</style>
<title>org.onlyoffice.desktopeditors</title>
<g>
	
		<linearGradient id="SVGID_1_" gradientUnits="userSpaceOnUse" x1="1.793229e-02" y1="22.6156" x2="127.6101" y2="22.6156" gradientTransform="matrix(1 0 0 -1 0 127.8898)">
		<stop  offset="0" style="stop-color:#D84627"/>
		<stop  offset="6.000000e-02" style="stop-color:#E2653E"/>
		<stop  offset="0.3" style="stop-color:#E87E5A"/>
		<stop  offset="0.5" style="stop-color:#EF9778"/>
		<stop  offset="0.7" style="stop-color:#E87E5A"/>
		<stop  offset="0.92" style="stop-color:#E2653E"/>
		<stop  offset="1" style="stop-color:#D84627"/>
	</linearGradient>
	<path class="st0" d="M127.6,90.5v6.2l0,0c0,1.4-1.1,2.7-3.4,3.7l-52.6,24.2c-4.1,1.9-11.3,1.9-15.6,0L3.4,100.3
		C1.1,99.3,0,97.9,0,96.6l0,0v-6.2l6.3,1.2l15.4-7l34,15.7c4.5,2.1,11.7,2.1,16,0l34.1-15.7l15.4,7.1L127.6,90.5z"/>
	
		<linearGradient id="SVGID_2_" gradientUnits="userSpaceOnUse" x1="63.8016" y1="853.4158" x2="63.8016" y2="765.1899" gradientTransform="matrix(1 0 0 1 0 -711.8898)">
		<stop  offset="0" style="stop-color:#FBC3B2"/>
		<stop  offset="0.88" style="stop-color:#D84626"/>
	</linearGradient>
	<path class="st1" d="M56,118.7L3.4,94.5c-4.5-2.1-4.5-5.4,0-7.3l18.4-8.4l34.1,15.7c5.1,2.1,10.9,2.1,16,0l34.1-15.7l18.3,8.4
		c4.5,2.1,4.5,5.4,0,7.3l-52.6,24.2C67.5,120.5,60.3,120.5,56,118.7z"/>
	
		<linearGradient id="SVGID_3_" gradientUnits="userSpaceOnUse" x1="5.608243e-03" y1="52.4306" x2="127.9953" y2="52.4306" gradientTransform="matrix(1 0 0 -1 0 127.8898)">
		<stop  offset="0" style="stop-color:#71924D"/>
		<stop  offset="6.000000e-02" style="stop-color:#8BBC40"/>
		<stop  offset="0.3" style="stop-color:#A4C967"/>
		<stop  offset="0.5" style="stop-color:#BED891"/>
		<stop  offset="0.7" style="stop-color:#A4C967"/>
		<stop  offset="0.92" style="stop-color:#8BBC40"/>
		<stop  offset="1" style="stop-color:#71924C"/>
	</linearGradient>
	<path class="st2" d="M128,61.1v5.7c0,1.3-1.1,2.6-3.4,3.6L72,94.5c-4.5,2.1-11.7,2.1-16,0L3.4,70.4C1.1,69.3,0,68,0,66.6v-5.5
		l5.9,0.8l15.4-7.1l27.9,12.8l14.8,2l14.8-2l27.9-12.8l15.4,7.1L128,61.1z"/>
	
		<linearGradient id="SVGID_4_" gradientUnits="userSpaceOnUse" x1="63.9942" y1="814.9568" x2="63.9942" y2="756.9389" gradientTransform="matrix(1 0 0 1 0 -711.8898)">
		<stop  offset="0" style="stop-color:#DEEDC9"/>
		<stop  offset="0.66" style="stop-color:#8BBB3F"/>
	</linearGradient>
	<path class="st3" d="M56,88.6L3.4,64.5c-4.5-2.1-4.5-5.4,0-7.3l17.9-8.2L56,64.9c5.1,2.1,10.9,2.1,16,0l34.7-15.9l17.9,8.2
		c4.5,2.1,4.5,5.4,0,7.3L72,88.6C66.9,90.8,61.1,90.8,56,88.6z"/>
	
		<linearGradient id="SVGID_5_" gradientUnits="userSpaceOnUse" x1="5.608243e-03" y1="90.6316" x2="128" y2="90.6316" gradientTransform="matrix(1 0 0 -1 0 127.8898)">
		<stop  offset="0" style="stop-color:#26A7C9"/>
		<stop  offset="6.000000e-02" style="stop-color:#64B8E7"/>
		<stop  offset="0.3" style="stop-color:#84C6EA"/>
		<stop  offset="0.5" style="stop-color:#A1D4F0"/>
		<stop  offset="0.7" style="stop-color:#84C6EA"/>
		<stop  offset="0.92" style="stop-color:#64B8E7"/>
		<stop  offset="1" style="stop-color:#26A7C9"/>
	</linearGradient>
	<path class="st4" d="M128,31.4v5.9c0.1,1.4-1,2.7-3.4,3.7L72,65.1c-5.2,1.9-10.8,1.9-16,0L3.4,41C1.1,39.9,0,38.6,0,37.2v-5.9h8.4
		L56,9.5c5.1-2.1,10.9-2.1,16,0l47.6,21.8L128,31.4z"/>
	
		<linearGradient id="SVGID_6_" gradientUnits="userSpaceOnUse" x1="63.9942" y1="791.0488" x2="63.9942" y2="712.0928" gradientTransform="matrix(1 0 0 1 0 -711.8898)">
		<stop  offset="0" style="stop-color:#C3E8F7"/>
		<stop  offset="1" style="stop-color:#28A7DD"/>
	</linearGradient>
	<path class="st5" d="M56,59.3L3.4,35.1c-4.5-2.1-4.5-5.4,0-7.3L56,3.6c5.1-2.1,10.9-2.1,16,0l52.6,24.2c4.5,2.1,4.5,5.4,0,7.3
		L72,59.3C66.8,61.2,61.2,61.2,56,59.3z"/>
</g>
</svg>
