<?xml version="1.0" encoding="utf-8"?>
<!-- Generator: Adobe Illustrator 22.1.0, SVG Export Plug-In . SVG Version: 6.00 Build 0)  -->
<svg version="1.1" id="Layer_1" xmlns="http://www.w3.org/2000/svg" xmlns:xlink="http://www.w3.org/1999/xlink" x="0px" y="0px"
	 viewBox="0 0 16 16" style="enable-background:new 0 0 16 16;" xml:space="preserve">
<title>org.onlyoffice.desktopeditors-symbolic</title>
<g>
	<path d="M7,15.1l-6.6-3c-0.6-0.3-0.6-0.7,0-0.9l2.3-1.1l4.3,2c0.6,0.3,1.4,0.3,2,0l4.2-2l2.3,1.1c0.5,0.3,0.5,0.7,0,0.9l-6.6,3
		C8.3,15.4,7.6,15.4,7,15.1z"/>
	<path d="M7,11.4l-6.6-3c-0.6-0.3-0.6-0.7,0-0.9l2.2-1l4.4,2c0.6,0.3,1.3,0.3,2,0l4.4-2l2.2,1c0.6,0.3,0.6,0.7,0,0.9l-6.6,3
		C8.4,11.7,7.7,11.7,7,11.4z"/>
	<path d="M7,7.8l-6.6-3c-0.6-0.3-0.6-0.7,0-0.9l6.6-3c0.6-0.3,1.3-0.3,2,0l6.6,3c0.6,0.3,0.6,0.7,0,0.9L9,7.8C8.3,8.1,7.6,8.1,7,7.8
		z"/>
</g>
</svg>
